<svg version="1" xmlns="http://www.w3.org/2000/svg" width="293.333" height="293.333" viewBox="0 0 220.000000 220.000000"><path d="M73.6 8c-21.4 6.8-33.3 29.7-26.7 51.1 3.7 11.6 11.9 20.7 23.8 26.1 7 3.3 23.6 3.3 30.6 0 12.3-5.6 20.9-15.4 24.2-27.6 2-7.5 1.3-7.3 11.8-3.1 9.2 3.7 16.4 8.4 25.3 16.9 4.6 4.3 8.4 8.2 8.4 8.6 0 .4-2.5 1-5.5 1.3-17.2 1.8-30.7 15.9-32.2 33.7l-.6 7h-3.2c-5.3 0-18.3 3.8-26.1 7.5-7.8 3.8-24.5 15.8-30.3 21.9l-3.5 3.6-3.2-4.6c-3.9-5.5-5.2-8.9-6.2-16.9-.6-5.5-.9-6-3.2-6-2 0-2.6.6-2.8 3-.2 1.6.1 5.5.8 8.5 2.9 13.4 12.6 24.8 27.3 32 6.9 3.4 9.7 4.2 17.8 5 14.8 1.5 25.9-.9 36.6-7.9 8.1-5.3 11-8.6 9.3-10.6-1.8-2.2-2.6-1.9-7.4 2-5.7 4.6-16 9.3-23.2 10.6-11.3 1.8-26.8-1.2-35.7-7.2-2.6-1.7-4.7-3.4-4.7-3.8 0-1.4 11.3-11.5 18-16.3 12.3-8.6 28.1-14.8 38-14.8 3.4 0 3.8.3 6 5 3.1 6.6 9.8 13.2 16.8 16.7 7.1 3.5 18.2 4.3 26.1 2 5.9-1.7 5.7-2.3 2 7.6-5 13.4-18.6 30.1-31 38-7.8 5-21 10.2-29.5 11.7-11.2 2-30.1.9-39.9-2.3-12.3-4-22.7-10.7-32.5-20.6-11.5-11.7-17.4-22-21.7-38.2-2.6-9.8-2.4-29.2.5-39.1C30.5 99.3 34 91.4 38 85.5c3.4-5 3.6-7.8.5-8.3-1.5-.2-3 1.3-5.8 5.7-16.1 25.1-17.7 57.5-4.2 84.6 9.1 18.4 21.2 30.6 39 39.5 13.3 6.6 23.6 9 39 9 23.5 0 43-7.8 59.9-23.9 11.8-11.4 18.3-21.9 23.2-37.6 2-6.7 3.7-10 6.5-13.2 16.2-17.9 11-45.7-10.6-56.4-3.5-1.7-7.2-4.3-8.1-5.8-8.9-13.6-27.8-27.5-44.6-32.7-4.1-1.3-5.8-2.3-5.8-3.5 0-3.9-4.1-14.6-7.6-19.6C109.7 9.2 90.2 2.7 73.6 8zm26.7 6.8c6.5 2.9 14.1 10.4 17.4 17.1 2.5 4.9 2.8 6.8 2.8 15.1 0 7.7-.4 10.4-2.2 14.2-3 6.6-10.5 14.3-17.2 17.5-4.9 2.5-6.8 2.8-15.1 2.8s-10.2-.3-15.1-2.8c-6.7-3.2-14.2-10.9-17.2-17.5-3.1-6.7-3.1-21.6 0-28.4 4-8.6 11.5-15.5 20.6-18.9 6.8-2.6 19.1-2.1 26 .9zm78.8 73.7c10.1 3.6 16.5 10.7 19.5 21.4 3.2 11.6-1 23.6-10.9 31-6.5 4.8-10.4 6.1-18.2 6.1-12 0-21.9-6-27-16.4-8.2-16.7-.3-35.9 17.2-42.2 5.1-1.8 14.1-1.7 19.4.1z"/></svg>